<svg width="1080" height="1080" viewBox="0 0 1080 1080" fill="none" xmlns="http://www.w3.org/2000/svg">
<rect width="1080" height="1080" fill="#00C896"/>
<rect x="151" y="460" width="158" height="160" rx="30" fill="#0F0F0F"/>
<path d="M267.885 574.826C258.996 584.528 249.881 591.458 240.539 595.615C231.192 599.627 222.016 600.886 213.012 599.392C204.076 597.822 195.669 593.411 187.79 586.16C179.835 578.839 174.698 570.784 172.377 561.994C170.126 553.129 170.635 543.893 173.904 534.286C177.166 524.535 183.242 514.809 192.131 505.107C201.089 495.329 210.242 488.434 219.589 484.422C228.861 480.34 237.965 479.084 246.901 480.654C255.905 482.148 264.385 486.556 272.339 493.877C280.218 501.128 285.284 509.187 287.535 518.052C289.856 526.842 289.419 536.074 286.225 545.75C282.956 555.357 276.843 565.049 267.885 574.826ZM254.94 562.913C260.453 556.896 264.376 550.802 266.709 544.632C269.112 538.387 269.646 532.294 268.312 526.352C267.047 520.336 263.6 514.738 257.972 509.558C252.344 504.378 246.485 501.413 240.397 500.661C234.377 499.834 228.365 500.886 222.36 503.816C216.35 506.602 210.588 511.003 205.076 517.02C199.632 522.962 195.712 529.127 193.316 535.517C190.845 541.838 190.242 548.006 191.507 554.022C192.772 560.039 196.219 565.637 201.847 570.817C207.475 575.997 213.333 578.962 219.422 579.714C225.511 580.466 231.592 579.339 237.665 576.333C243.738 573.328 249.497 568.854 254.94 562.913Z" fill="#00C896"/>
<mask id="path-3-outside-1_134_11" maskUnits="userSpaceOnUse" x="327" y="473" width="604" height="133" fill="black">
<rect fill="white" x="327" y="473" width="604" height="133"/>
<path d="M329 513.682H352.05V601.871H329V513.682ZM385.916 532.669C379.296 532.669 373.563 533.97 368.717 536.572C363.871 539.056 359.97 542.132 357.015 545.799C354.06 549.466 351.991 553.015 350.809 556.446L350.632 546.686C350.75 545.267 351.223 543.197 352.05 540.476C352.877 537.637 354.119 534.62 355.773 531.426C357.428 528.114 359.615 524.979 362.334 522.022C365.053 518.946 368.362 516.462 372.263 514.569C376.164 512.677 380.715 511.73 385.916 511.73V532.669Z"/>
<path d="M468.074 603.823C460.273 603.823 453.594 602.462 448.039 599.741C442.483 596.902 437.991 593.235 434.563 588.74C431.135 584.127 428.594 579.158 426.939 573.835C425.284 568.393 424.457 563.07 424.457 557.865C424.457 551.359 425.225 545.326 426.762 539.766C428.417 534.206 430.958 529.356 434.386 525.216C437.814 520.957 442.306 517.645 447.861 515.279C453.417 512.913 460.155 511.73 468.074 511.73C477.176 511.73 485.214 513.682 492.188 517.586C499.281 521.371 504.836 526.695 508.855 533.556C512.992 540.417 515.061 548.52 515.061 557.865C515.061 566.974 512.992 575.018 508.855 581.997C504.718 588.858 499.103 594.241 492.011 598.144C484.919 601.93 476.94 603.823 468.074 603.823ZM460.628 586.078C466.892 586.078 472.33 584.895 476.94 582.53C481.55 580.164 485.096 576.911 487.578 572.77C490.179 568.512 491.479 563.543 491.479 557.865C491.479 549.348 488.76 542.487 483.323 537.282C478.004 532.077 470.439 529.475 460.628 529.475C453.772 529.475 447.802 530.598 442.719 532.846C437.637 535.094 433.677 538.347 430.84 542.605C428.121 546.746 426.762 551.832 426.762 557.865C426.762 563.425 428.121 568.334 430.84 572.593C433.559 576.851 437.459 580.164 442.542 582.53C447.625 584.895 453.653 586.078 460.628 586.078ZM426.762 478.194V579.158C426.762 582.944 426.584 587.025 426.23 591.402C425.875 595.66 425.521 599.15 425.166 601.871H403.712V478.194H426.762Z"/>
<path d="M556.526 475C557.631 475 558.526 475.895 558.526 477V493.228C558.526 494.333 557.631 495.228 556.526 495.228H533.753C532.648 495.228 531.753 494.333 531.753 493.228V477C531.753 475.895 532.648 475 533.753 475H556.526ZM533.526 513.682H556.576V601.871H533.526V513.682Z"/>
<path d="M573.345 513.682H641.786V531.604H573.345V513.682ZM596.041 483.576L619.091 506.437V601.871H596.041V483.576Z"/>
<path d="M735.539 572.593H757.88C756.934 578.626 754.393 584.008 750.256 588.74C746.237 593.472 740.74 597.198 733.766 599.919C726.792 602.64 718.281 604 708.234 604C697.004 604 687.075 602.226 678.446 598.677C669.817 595.01 663.079 589.746 658.233 582.884C653.386 576.023 650.963 567.743 650.963 558.043C650.963 548.343 653.327 540.062 658.056 533.201C662.784 526.221 669.344 520.898 677.737 517.231C686.248 513.564 696.177 511.73 707.525 511.73C719.109 511.73 728.742 513.564 736.426 517.231C744.109 520.898 749.783 526.458 753.447 533.911C757.23 541.245 758.826 550.649 758.235 562.124H674.191C674.782 566.619 676.437 570.7 679.155 574.367C681.992 578.034 685.775 580.933 690.503 583.062C695.349 585.191 701.082 586.256 707.702 586.256C715.031 586.256 721.118 585.014 725.965 582.53C730.929 579.927 734.121 576.615 735.539 572.593ZM706.461 529.297C697.95 529.297 691.035 531.19 685.716 534.975C680.396 538.642 676.968 543.197 675.432 548.638H735.362C734.771 542.724 731.934 538.051 726.851 534.62C721.886 531.072 715.09 529.297 706.461 529.297Z"/>
<path d="M775.386 513.682H798.436V601.871H775.386V513.682ZM832.302 532.669C825.683 532.669 819.95 533.97 815.103 536.572C810.257 539.056 806.356 542.132 803.401 545.799C800.446 549.466 798.377 553.015 797.195 556.446L797.018 546.686C797.136 545.267 797.609 543.197 798.436 540.476C799.264 537.637 800.505 534.62 802.16 531.426C803.815 528.114 806.001 524.979 808.72 522.022C811.439 518.946 814.749 516.462 818.649 514.569C822.55 512.677 827.101 511.73 832.302 511.73V532.669Z"/>
<path d="M843.006 572.593H864.283C865.583 576.615 868.243 579.927 872.261 582.53C876.399 585.014 881.777 586.256 888.396 586.256C892.888 586.256 896.375 585.842 898.858 585.014C901.34 584.186 903.054 583.003 904 581.465C904.945 579.809 905.418 577.975 905.418 575.964C905.418 573.48 904.65 571.587 903.113 570.286C901.576 568.867 899.212 567.743 896.021 566.915C892.829 566.087 888.751 565.318 883.786 564.608C878.822 563.78 874.035 562.774 869.425 561.591C864.815 560.409 860.736 558.871 857.19 556.978C853.644 554.967 850.807 552.483 848.68 549.525C846.67 546.45 845.665 542.724 845.665 538.347C845.665 534.088 846.67 530.303 848.68 526.99C850.807 523.678 853.703 520.898 857.368 518.651C861.15 516.403 865.524 514.688 870.488 513.505C875.571 512.322 881.009 511.73 886.801 511.73C895.548 511.73 902.818 513.032 908.61 515.634C914.402 518.118 918.716 521.667 921.553 526.281C924.508 530.776 925.986 535.981 925.986 541.895H905.595C904.65 537.519 902.758 534.384 899.921 532.491C897.085 530.48 892.711 529.475 886.801 529.475C881.009 529.475 876.635 530.362 873.68 532.136C870.725 533.911 869.247 536.336 869.247 539.411C869.247 541.895 870.134 543.847 871.907 545.267C873.798 546.568 876.517 547.633 880.063 548.461C883.727 549.289 888.278 550.176 893.716 551.122C898.326 552.069 902.699 553.133 906.837 554.316C911.092 555.499 914.874 557.037 918.184 558.93C921.494 560.704 924.094 563.129 925.986 566.205C927.995 569.162 929 572.948 929 577.561C929 583.239 927.345 588.03 924.035 591.934C920.844 595.838 916.234 598.854 910.205 600.983C904.177 602.995 896.966 604 888.574 604C881.127 604 874.685 603.231 869.247 601.693C863.928 600.037 859.495 597.967 855.949 595.483C852.403 592.88 849.625 590.16 847.616 587.32C845.724 584.363 844.424 581.583 843.715 578.981C843.006 576.378 842.769 574.249 843.006 572.593Z"/>
</mask>
<path d="M329 513.682H352.05V601.871H329V513.682ZM385.916 532.669C379.296 532.669 373.563 533.97 368.717 536.572C363.871 539.056 359.97 542.132 357.015 545.799C354.06 549.466 351.991 553.015 350.809 556.446L350.632 546.686C350.75 545.267 351.223 543.197 352.05 540.476C352.877 537.637 354.119 534.62 355.773 531.426C357.428 528.114 359.615 524.979 362.334 522.022C365.053 518.946 368.362 516.462 372.263 514.569C376.164 512.677 380.715 511.73 385.916 511.73V532.669Z" fill="#0F0F0F"/>
<path d="M468.074 603.823C460.273 603.823 453.594 602.462 448.039 599.741C442.483 596.902 437.991 593.235 434.563 588.74C431.135 584.127 428.594 579.158 426.939 573.835C425.284 568.393 424.457 563.07 424.457 557.865C424.457 551.359 425.225 545.326 426.762 539.766C428.417 534.206 430.958 529.356 434.386 525.216C437.814 520.957 442.306 517.645 447.861 515.279C453.417 512.913 460.155 511.73 468.074 511.73C477.176 511.73 485.214 513.682 492.188 517.586C499.281 521.371 504.836 526.695 508.855 533.556C512.992 540.417 515.061 548.52 515.061 557.865C515.061 566.974 512.992 575.018 508.855 581.997C504.718 588.858 499.103 594.241 492.011 598.144C484.919 601.93 476.94 603.823 468.074 603.823ZM460.628 586.078C466.892 586.078 472.33 584.895 476.94 582.53C481.55 580.164 485.096 576.911 487.578 572.77C490.179 568.512 491.479 563.543 491.479 557.865C491.479 549.348 488.76 542.487 483.323 537.282C478.004 532.077 470.439 529.475 460.628 529.475C453.772 529.475 447.802 530.598 442.719 532.846C437.637 535.094 433.677 538.347 430.84 542.605C428.121 546.746 426.762 551.832 426.762 557.865C426.762 563.425 428.121 568.334 430.84 572.593C433.559 576.851 437.459 580.164 442.542 582.53C447.625 584.895 453.653 586.078 460.628 586.078ZM426.762 478.194V579.158C426.762 582.944 426.584 587.025 426.23 591.402C425.875 595.66 425.521 599.15 425.166 601.871H403.712V478.194H426.762Z" fill="#0F0F0F"/>
<path d="M556.526 475C557.631 475 558.526 475.895 558.526 477V493.228C558.526 494.333 557.631 495.228 556.526 495.228H533.753C532.648 495.228 531.753 494.333 531.753 493.228V477C531.753 475.895 532.648 475 533.753 475H556.526ZM533.526 513.682H556.576V601.871H533.526V513.682Z" fill="#0F0F0F"/>
<path d="M573.345 513.682H641.786V531.604H573.345V513.682ZM596.041 483.576L619.091 506.437V601.871H596.041V483.576Z" fill="#0F0F0F"/>
<path d="M735.539 572.593H757.88C756.934 578.626 754.393 584.008 750.256 588.74C746.237 593.472 740.74 597.198 733.766 599.919C726.792 602.64 718.281 604 708.234 604C697.004 604 687.075 602.226 678.446 598.677C669.817 595.01 663.079 589.746 658.233 582.884C653.386 576.023 650.963 567.743 650.963 558.043C650.963 548.343 653.327 540.062 658.056 533.201C662.784 526.221 669.344 520.898 677.737 517.231C686.248 513.564 696.177 511.73 707.525 511.73C719.109 511.73 728.742 513.564 736.426 517.231C744.109 520.898 749.783 526.458 753.447 533.911C757.23 541.245 758.826 550.649 758.235 562.124H674.191C674.782 566.619 676.437 570.7 679.155 574.367C681.992 578.034 685.775 580.933 690.503 583.062C695.349 585.191 701.082 586.256 707.702 586.256C715.031 586.256 721.118 585.014 725.965 582.53C730.929 579.927 734.121 576.615 735.539 572.593ZM706.461 529.297C697.95 529.297 691.035 531.19 685.716 534.975C680.396 538.642 676.968 543.197 675.432 548.638H735.362C734.771 542.724 731.934 538.051 726.851 534.62C721.886 531.072 715.09 529.297 706.461 529.297Z" fill="#0F0F0F"/>
<path d="M775.386 513.682H798.436V601.871H775.386V513.682ZM832.302 532.669C825.683 532.669 819.95 533.97 815.103 536.572C810.257 539.056 806.356 542.132 803.401 545.799C800.446 549.466 798.377 553.015 797.195 556.446L797.018 546.686C797.136 545.267 797.609 543.197 798.436 540.476C799.264 537.637 800.505 534.62 802.16 531.426C803.815 528.114 806.001 524.979 808.72 522.022C811.439 518.946 814.749 516.462 818.649 514.569C822.55 512.677 827.101 511.73 832.302 511.73V532.669Z" fill="#0F0F0F"/>
<path d="M843.006 572.593H864.283C865.583 576.615 868.243 579.927 872.261 582.53C876.399 585.014 881.777 586.256 888.396 586.256C892.888 586.256 896.375 585.842 898.858 585.014C901.34 584.186 903.054 583.003 904 581.465C904.945 579.809 905.418 577.975 905.418 575.964C905.418 573.48 904.65 571.587 903.113 570.286C901.576 568.867 899.212 567.743 896.021 566.915C892.829 566.087 888.751 565.318 883.786 564.608C878.822 563.78 874.035 562.774 869.425 561.591C864.815 560.409 860.736 558.871 857.19 556.978C853.644 554.967 850.807 552.483 848.68 549.525C846.67 546.45 845.665 542.724 845.665 538.347C845.665 534.088 846.67 530.303 848.68 526.99C850.807 523.678 853.703 520.898 857.368 518.651C861.15 516.403 865.524 514.688 870.488 513.505C875.571 512.322 881.009 511.73 886.801 511.73C895.548 511.73 902.818 513.032 908.61 515.634C914.402 518.118 918.716 521.667 921.553 526.281C924.508 530.776 925.986 535.981 925.986 541.895H905.595C904.65 537.519 902.758 534.384 899.921 532.491C897.085 530.48 892.711 529.475 886.801 529.475C881.009 529.475 876.635 530.362 873.68 532.136C870.725 533.911 869.247 536.336 869.247 539.411C869.247 541.895 870.134 543.847 871.907 545.267C873.798 546.568 876.517 547.633 880.063 548.461C883.727 549.289 888.278 550.176 893.716 551.122C898.326 552.069 902.699 553.133 906.837 554.316C911.092 555.499 914.874 557.037 918.184 558.93C921.494 560.704 924.094 563.129 925.986 566.205C927.995 569.162 929 572.948 929 577.561C929 583.239 927.345 588.03 924.035 591.934C920.844 595.838 916.234 598.854 910.205 600.983C904.177 602.995 896.966 604 888.574 604C881.127 604 874.685 603.231 869.247 601.693C863.928 600.037 859.495 597.967 855.949 595.483C852.403 592.88 849.625 590.16 847.616 587.32C845.724 584.363 844.424 581.583 843.715 578.981C843.006 576.378 842.769 574.249 843.006 572.593Z" fill="#0F0F0F"/>
<path d="M329 513.682H352.05V601.871H329V513.682ZM385.916 532.669C379.296 532.669 373.563 533.97 368.717 536.572C363.871 539.056 359.97 542.132 357.015 545.799C354.06 549.466 351.991 553.015 350.809 556.446L350.632 546.686C350.75 545.267 351.223 543.197 352.05 540.476C352.877 537.637 354.119 534.62 355.773 531.426C357.428 528.114 359.615 524.979 362.334 522.022C365.053 518.946 368.362 516.462 372.263 514.569C376.164 512.677 380.715 511.73 385.916 511.73V532.669Z" stroke="#0F0F0F" stroke-width="4" mask="url(#path-3-outside-1_134_11)"/>
<path d="M468.074 603.823C460.273 603.823 453.594 602.462 448.039 599.741C442.483 596.902 437.991 593.235 434.563 588.74C431.135 584.127 428.594 579.158 426.939 573.835C425.284 568.393 424.457 563.07 424.457 557.865C424.457 551.359 425.225 545.326 426.762 539.766C428.417 534.206 430.958 529.356 434.386 525.216C437.814 520.957 442.306 517.645 447.861 515.279C453.417 512.913 460.155 511.73 468.074 511.73C477.176 511.73 485.214 513.682 492.188 517.586C499.281 521.371 504.836 526.695 508.855 533.556C512.992 540.417 515.061 548.52 515.061 557.865C515.061 566.974 512.992 575.018 508.855 581.997C504.718 588.858 499.103 594.241 492.011 598.144C484.919 601.93 476.94 603.823 468.074 603.823ZM460.628 586.078C466.892 586.078 472.33 584.895 476.94 582.53C481.55 580.164 485.096 576.911 487.578 572.77C490.179 568.512 491.479 563.543 491.479 557.865C491.479 549.348 488.76 542.487 483.323 537.282C478.004 532.077 470.439 529.475 460.628 529.475C453.772 529.475 447.802 530.598 442.719 532.846C437.637 535.094 433.677 538.347 430.84 542.605C428.121 546.746 426.762 551.832 426.762 557.865C426.762 563.425 428.121 568.334 430.84 572.593C433.559 576.851 437.459 580.164 442.542 582.53C447.625 584.895 453.653 586.078 460.628 586.078ZM426.762 478.194V579.158C426.762 582.944 426.584 587.025 426.23 591.402C425.875 595.66 425.521 599.15 425.166 601.871H403.712V478.194H426.762Z" stroke="#0F0F0F" stroke-width="4" mask="url(#path-3-outside-1_134_11)"/>
<path d="M556.526 475C557.631 475 558.526 475.895 558.526 477V493.228C558.526 494.333 557.631 495.228 556.526 495.228H533.753C532.648 495.228 531.753 494.333 531.753 493.228V477C531.753 475.895 532.648 475 533.753 475H556.526ZM533.526 513.682H556.576V601.871H533.526V513.682Z" stroke="#0F0F0F" stroke-width="4" mask="url(#path-3-outside-1_134_11)"/>
<path d="M573.345 513.682H641.786V531.604H573.345V513.682ZM596.041 483.576L619.091 506.437V601.871H596.041V483.576Z" stroke="#0F0F0F" stroke-width="4" mask="url(#path-3-outside-1_134_11)"/>
<path d="M735.539 572.593H757.88C756.934 578.626 754.393 584.008 750.256 588.74C746.237 593.472 740.74 597.198 733.766 599.919C726.792 602.64 718.281 604 708.234 604C697.004 604 687.075 602.226 678.446 598.677C669.817 595.01 663.079 589.746 658.233 582.884C653.386 576.023 650.963 567.743 650.963 558.043C650.963 548.343 653.327 540.062 658.056 533.201C662.784 526.221 669.344 520.898 677.737 517.231C686.248 513.564 696.177 511.73 707.525 511.73C719.109 511.73 728.742 513.564 736.426 517.231C744.109 520.898 749.783 526.458 753.447 533.911C757.23 541.245 758.826 550.649 758.235 562.124H674.191C674.782 566.619 676.437 570.7 679.155 574.367C681.992 578.034 685.775 580.933 690.503 583.062C695.349 585.191 701.082 586.256 707.702 586.256C715.031 586.256 721.118 585.014 725.965 582.53C730.929 579.927 734.121 576.615 735.539 572.593ZM706.461 529.297C697.95 529.297 691.035 531.19 685.716 534.975C680.396 538.642 676.968 543.197 675.432 548.638H735.362C734.771 542.724 731.934 538.051 726.851 534.62C721.886 531.072 715.09 529.297 706.461 529.297Z" stroke="#0F0F0F" stroke-width="4" mask="url(#path-3-outside-1_134_11)"/>
<path d="M775.386 513.682H798.436V601.871H775.386V513.682ZM832.302 532.669C825.683 532.669 819.95 533.97 815.103 536.572C810.257 539.056 806.356 542.132 803.401 545.799C800.446 549.466 798.377 553.015 797.195 556.446L797.018 546.686C797.136 545.267 797.609 543.197 798.436 540.476C799.264 537.637 800.505 534.62 802.16 531.426C803.815 528.114 806.001 524.979 808.72 522.022C811.439 518.946 814.749 516.462 818.649 514.569C822.55 512.677 827.101 511.73 832.302 511.73V532.669Z" stroke="#0F0F0F" stroke-width="4" mask="url(#path-3-outside-1_134_11)"/>
<path d="M843.006 572.593H864.283C865.583 576.615 868.243 579.927 872.261 582.53C876.399 585.014 881.777 586.256 888.396 586.256C892.888 586.256 896.375 585.842 898.858 585.014C901.34 584.186 903.054 583.003 904 581.465C904.945 579.809 905.418 577.975 905.418 575.964C905.418 573.48 904.65 571.587 903.113 570.286C901.576 568.867 899.212 567.743 896.021 566.915C892.829 566.087 888.751 565.318 883.786 564.608C878.822 563.78 874.035 562.774 869.425 561.591C864.815 560.409 860.736 558.871 857.19 556.978C853.644 554.967 850.807 552.483 848.68 549.525C846.67 546.45 845.665 542.724 845.665 538.347C845.665 534.088 846.67 530.303 848.68 526.99C850.807 523.678 853.703 520.898 857.368 518.651C861.15 516.403 865.524 514.688 870.488 513.505C875.571 512.322 881.009 511.73 886.801 511.73C895.548 511.73 902.818 513.032 908.61 515.634C914.402 518.118 918.716 521.667 921.553 526.281C924.508 530.776 925.986 535.981 925.986 541.895H905.595C904.65 537.519 902.758 534.384 899.921 532.491C897.085 530.48 892.711 529.475 886.801 529.475C881.009 529.475 876.635 530.362 873.68 532.136C870.725 533.911 869.247 536.336 869.247 539.411C869.247 541.895 870.134 543.847 871.907 545.267C873.798 546.568 876.517 547.633 880.063 548.461C883.727 549.289 888.278 550.176 893.716 551.122C898.326 552.069 902.699 553.133 906.837 554.316C911.092 555.499 914.874 557.037 918.184 558.93C921.494 560.704 924.094 563.129 925.986 566.205C927.995 569.162 929 572.948 929 577.561C929 583.239 927.345 588.03 924.035 591.934C920.844 595.838 916.234 598.854 910.205 600.983C904.177 602.995 896.966 604 888.574 604C881.127 604 874.685 603.231 869.247 601.693C863.928 600.037 859.495 597.967 855.949 595.483C852.403 592.88 849.625 590.16 847.616 587.32C845.724 584.363 844.424 581.583 843.715 578.981C843.006 576.378 842.769 574.249 843.006 572.593Z" stroke="#0F0F0F" stroke-width="4" mask="url(#path-3-outside-1_134_11)"/>
</svg>
