<svg width="780" height="160" viewBox="0 0 780 160" fill="none" xmlns="http://www.w3.org/2000/svg">
<rect width="158" height="160" rx="30" fill="#0F0F0F"/>
<path d="M116.885 114.826C107.996 124.528 98.8806 131.458 89.5395 135.615C80.1922 139.627 71.0164 140.886 62.0119 139.392C53.0763 137.822 44.6689 133.411 36.7896 126.16C28.8353 118.839 23.6979 110.784 21.3775 101.994C19.1259 93.1288 19.6346 83.8929 22.9036 74.2863C26.1664 64.5353 32.2423 54.8088 41.1314 45.1067C50.0894 35.3293 59.242 28.4344 68.5892 24.4219C77.8614 20.3403 86.9653 19.0843 95.9009 20.654C104.905 22.1484 113.385 26.556 121.339 33.8767C129.218 41.1284 134.284 49.1867 136.535 58.0518C138.856 66.8416 138.419 76.0744 135.225 85.7501C131.956 95.3568 125.843 105.049 116.885 114.826ZM103.94 102.913C109.453 96.8959 113.376 90.8024 115.709 84.6323C118.112 78.3869 118.646 72.2936 117.312 66.3524C116.047 60.3359 112.6 54.7378 106.972 49.5581C101.344 44.3783 95.4854 41.4126 89.3967 40.6608C83.3769 39.8339 77.3648 40.8855 71.3605 43.8158C65.35 46.6019 59.5885 51.0033 54.0759 57.0201C48.6322 62.9617 44.7122 69.1273 42.316 75.517C39.8447 81.8375 39.2416 88.006 40.5069 94.0225C41.7721 100.039 45.2187 105.637 50.8467 110.817C56.4748 115.997 62.3332 118.962 68.4219 119.714C74.5107 120.466 80.5916 119.339 86.6649 116.333C92.7381 113.328 98.4966 108.854 103.94 102.913Z" fill="#00C896"/>
<mask id="path-3-outside-1_134_12" maskUnits="userSpaceOnUse" x="176" y="13" width="604" height="133" fill="black">
<rect fill="white" x="176" y="13" width="604" height="133"/>
<path d="M178 53.6823H201.05V141.871H178V53.6823ZM234.916 72.6685C228.296 72.6685 222.563 73.9697 217.717 76.5722C212.871 79.0564 208.97 82.1321 206.015 85.7992C203.06 89.4663 200.991 93.0151 199.809 96.4457L199.632 86.6864C199.75 85.2668 200.223 83.1967 201.05 80.4759C201.877 77.6369 203.119 74.6204 204.773 71.4264C206.428 68.1142 208.615 64.9794 211.334 62.022C214.053 58.9464 217.362 56.4622 221.263 54.5695C225.164 52.6768 229.715 51.7304 234.916 51.7304V72.6685Z"/>
<path d="M317.074 143.823C309.273 143.823 302.594 142.462 297.039 139.741C291.483 136.902 286.991 133.235 283.563 128.74C280.135 124.127 277.594 119.158 275.939 113.835C274.284 108.393 273.457 103.07 273.457 97.8652C273.457 91.359 274.225 85.326 275.762 79.7662C277.417 74.2063 279.958 69.3563 283.386 65.216C286.814 60.9574 291.306 57.6451 296.861 55.2792C302.417 52.9133 309.155 51.7304 317.074 51.7304C326.176 51.7304 334.214 53.6823 341.188 57.586C348.281 61.3714 353.836 66.6946 357.855 73.5557C361.992 80.4168 364.061 88.5199 364.061 97.8652C364.061 106.974 361.992 115.018 357.855 121.997C353.718 128.858 348.103 134.241 341.011 138.144C333.919 141.93 325.94 143.823 317.074 143.823ZM309.628 126.078C315.892 126.078 321.33 124.895 325.94 122.53C330.55 120.164 334.096 116.911 336.578 112.77C339.179 108.512 340.479 103.543 340.479 97.8652C340.479 89.348 337.76 82.4869 332.323 77.282C327.004 72.077 319.439 69.4746 309.628 69.4746C302.772 69.4746 296.802 70.5984 291.719 72.8459C286.637 75.0935 282.677 78.3466 279.84 82.6052C277.121 86.7455 275.762 91.8322 275.762 97.8652C275.762 103.425 277.121 108.334 279.84 112.593C282.559 116.851 286.459 120.164 291.542 122.53C296.625 124.895 302.653 126.078 309.628 126.078ZM275.762 18.1939V119.158C275.762 122.944 275.584 127.025 275.23 131.402C274.875 135.66 274.521 139.15 274.166 141.871H252.712V18.1939H275.762Z"/>
<path d="M405.526 15C406.631 15 407.526 15.8954 407.526 17V33.2283C407.526 34.3329 406.631 35.2283 405.526 35.2283H382.753C381.648 35.2283 380.753 34.3329 380.753 33.2283V17C380.753 15.8954 381.648 15 382.753 15H405.526ZM382.526 53.6823H405.576V141.871H382.526V53.6823Z"/>
<path d="M422.345 53.6823H490.786V71.6039H422.345V53.6823ZM445.041 23.5763L468.091 46.4375V141.871H445.041V23.5763Z"/>
<path d="M584.539 112.593H606.88C605.934 118.626 603.393 124.008 599.256 128.74C595.237 133.472 589.74 137.198 582.766 139.919C575.792 142.64 567.281 144 557.234 144C546.004 144 536.075 142.226 527.446 138.677C518.817 135.01 512.079 129.746 507.233 122.884C502.386 116.023 499.963 107.743 499.963 98.0426C499.963 88.3425 502.327 80.0619 507.056 73.2008C511.784 66.2215 518.344 60.8982 526.737 57.2311C535.248 53.564 545.177 51.7304 556.525 51.7304C568.109 51.7304 577.742 53.564 585.426 57.2311C593.109 60.8982 598.783 66.458 602.447 73.9106C606.23 81.2448 607.826 90.6492 607.235 102.124H523.191C523.782 106.619 525.437 110.7 528.155 114.367C530.992 118.034 534.775 120.933 539.503 123.062C544.349 125.191 550.082 126.256 556.702 126.256C564.031 126.256 570.118 125.014 574.965 122.53C579.929 119.927 583.121 116.615 584.539 112.593ZM555.461 69.2971C546.95 69.2971 540.035 71.1898 534.716 74.9752C529.396 78.6424 525.968 83.1967 524.432 88.6382H584.362C583.771 82.7235 580.934 78.0509 575.851 74.6204C570.886 71.0715 564.09 69.2971 555.461 69.2971Z"/>
<path d="M624.386 53.6823H647.436V141.871H624.386V53.6823ZM681.302 72.6685C674.683 72.6685 668.95 73.9697 664.103 76.5722C659.257 79.0564 655.356 82.1321 652.401 85.7992C649.446 89.4663 647.377 93.0151 646.195 96.4457L646.018 86.6864C646.136 85.2668 646.609 83.1967 647.436 80.4759C648.264 77.6369 649.505 74.6204 651.16 71.4264C652.815 68.1142 655.001 64.9794 657.72 62.022C660.439 58.9464 663.749 56.4622 667.649 54.5695C671.55 52.6768 676.101 51.7304 681.302 51.7304V72.6685Z"/>
<path d="M692.006 112.593H713.283C714.583 116.615 717.243 119.927 721.261 122.53C725.399 125.014 730.777 126.256 737.396 126.256C741.888 126.256 745.375 125.842 747.858 125.014C750.34 124.186 752.054 123.003 753 121.465C753.945 119.809 754.418 117.975 754.418 115.964C754.418 113.48 753.65 111.587 752.113 110.286C750.576 108.867 748.212 107.743 745.021 106.915C741.829 106.087 737.751 105.318 732.786 104.608C727.822 103.78 723.035 102.774 718.425 101.591C713.815 100.409 709.736 98.8707 706.19 96.978C702.644 94.967 699.807 92.4828 697.68 89.5254C695.67 86.4498 694.665 82.7235 694.665 78.3466C694.665 74.088 695.67 70.3026 697.68 66.9904C699.807 63.6781 702.703 60.8982 706.368 58.6506C710.15 56.403 714.524 54.6878 719.488 53.5048C724.571 52.3219 730.009 51.7304 735.801 51.7304C744.548 51.7304 751.818 53.0316 757.61 55.6341C763.402 58.1183 767.716 61.6671 770.553 66.2806C773.508 70.7758 774.986 75.9807 774.986 81.8955H754.595C753.65 77.5186 751.758 74.3838 748.921 72.4911C746.085 70.4801 741.711 69.4746 735.801 69.4746C730.009 69.4746 725.635 70.3618 722.68 72.1362C719.725 73.9106 718.247 76.3356 718.247 79.4113C718.247 81.8955 719.134 83.8473 720.907 85.2669C722.798 86.5681 725.517 87.6327 729.063 88.4608C732.727 89.2889 737.278 90.1761 742.716 91.1224C747.326 92.0688 751.699 93.1334 755.837 94.3164C760.092 95.4993 763.874 97.0371 767.184 98.9298C770.494 100.704 773.094 103.129 774.986 106.205C776.995 109.162 778 112.948 778 117.561C778 123.239 776.345 128.03 773.035 131.934C769.844 135.838 765.234 138.854 759.205 140.983C753.177 142.995 745.966 144 737.574 144C730.127 144 723.685 143.231 718.247 141.693C712.928 140.037 708.495 137.967 704.949 135.483C701.403 132.88 698.625 130.16 696.616 127.32C694.724 124.363 693.424 121.583 692.715 118.981C692.006 116.378 691.769 114.249 692.006 112.593Z"/>
</mask>
<path d="M178 53.6823H201.05V141.871H178V53.6823ZM234.916 72.6685C228.296 72.6685 222.563 73.9697 217.717 76.5722C212.871 79.0564 208.97 82.1321 206.015 85.7992C203.06 89.4663 200.991 93.0151 199.809 96.4457L199.632 86.6864C199.75 85.2668 200.223 83.1967 201.05 80.4759C201.877 77.6369 203.119 74.6204 204.773 71.4264C206.428 68.1142 208.615 64.9794 211.334 62.022C214.053 58.9464 217.362 56.4622 221.263 54.5695C225.164 52.6768 229.715 51.7304 234.916 51.7304V72.6685Z" fill="#0F0F0F"/>
<path d="M317.074 143.823C309.273 143.823 302.594 142.462 297.039 139.741C291.483 136.902 286.991 133.235 283.563 128.74C280.135 124.127 277.594 119.158 275.939 113.835C274.284 108.393 273.457 103.07 273.457 97.8652C273.457 91.359 274.225 85.326 275.762 79.7662C277.417 74.2063 279.958 69.3563 283.386 65.216C286.814 60.9574 291.306 57.6451 296.861 55.2792C302.417 52.9133 309.155 51.7304 317.074 51.7304C326.176 51.7304 334.214 53.6823 341.188 57.586C348.281 61.3714 353.836 66.6946 357.855 73.5557C361.992 80.4168 364.061 88.5199 364.061 97.8652C364.061 106.974 361.992 115.018 357.855 121.997C353.718 128.858 348.103 134.241 341.011 138.144C333.919 141.93 325.94 143.823 317.074 143.823ZM309.628 126.078C315.892 126.078 321.33 124.895 325.94 122.53C330.55 120.164 334.096 116.911 336.578 112.77C339.179 108.512 340.479 103.543 340.479 97.8652C340.479 89.348 337.76 82.4869 332.323 77.282C327.004 72.077 319.439 69.4746 309.628 69.4746C302.772 69.4746 296.802 70.5984 291.719 72.8459C286.637 75.0935 282.677 78.3466 279.84 82.6052C277.121 86.7455 275.762 91.8322 275.762 97.8652C275.762 103.425 277.121 108.334 279.84 112.593C282.559 116.851 286.459 120.164 291.542 122.53C296.625 124.895 302.653 126.078 309.628 126.078ZM275.762 18.1939V119.158C275.762 122.944 275.584 127.025 275.23 131.402C274.875 135.66 274.521 139.15 274.166 141.871H252.712V18.1939H275.762Z" fill="#0F0F0F"/>
<path d="M405.526 15C406.631 15 407.526 15.8954 407.526 17V33.2283C407.526 34.3329 406.631 35.2283 405.526 35.2283H382.753C381.648 35.2283 380.753 34.3329 380.753 33.2283V17C380.753 15.8954 381.648 15 382.753 15H405.526ZM382.526 53.6823H405.576V141.871H382.526V53.6823Z" fill="#0F0F0F"/>
<path d="M422.345 53.6823H490.786V71.6039H422.345V53.6823ZM445.041 23.5763L468.091 46.4375V141.871H445.041V23.5763Z" fill="#0F0F0F"/>
<path d="M584.539 112.593H606.88C605.934 118.626 603.393 124.008 599.256 128.74C595.237 133.472 589.74 137.198 582.766 139.919C575.792 142.64 567.281 144 557.234 144C546.004 144 536.075 142.226 527.446 138.677C518.817 135.01 512.079 129.746 507.233 122.884C502.386 116.023 499.963 107.743 499.963 98.0426C499.963 88.3425 502.327 80.0619 507.056 73.2008C511.784 66.2215 518.344 60.8982 526.737 57.2311C535.248 53.564 545.177 51.7304 556.525 51.7304C568.109 51.7304 577.742 53.564 585.426 57.2311C593.109 60.8982 598.783 66.458 602.447 73.9106C606.23 81.2448 607.826 90.6492 607.235 102.124H523.191C523.782 106.619 525.437 110.7 528.155 114.367C530.992 118.034 534.775 120.933 539.503 123.062C544.349 125.191 550.082 126.256 556.702 126.256C564.031 126.256 570.118 125.014 574.965 122.53C579.929 119.927 583.121 116.615 584.539 112.593ZM555.461 69.2971C546.95 69.2971 540.035 71.1898 534.716 74.9752C529.396 78.6424 525.968 83.1967 524.432 88.6382H584.362C583.771 82.7235 580.934 78.0509 575.851 74.6204C570.886 71.0715 564.09 69.2971 555.461 69.2971Z" fill="#0F0F0F"/>
<path d="M624.386 53.6823H647.436V141.871H624.386V53.6823ZM681.302 72.6685C674.683 72.6685 668.95 73.9697 664.103 76.5722C659.257 79.0564 655.356 82.1321 652.401 85.7992C649.446 89.4663 647.377 93.0151 646.195 96.4457L646.018 86.6864C646.136 85.2668 646.609 83.1967 647.436 80.4759C648.264 77.6369 649.505 74.6204 651.16 71.4264C652.815 68.1142 655.001 64.9794 657.72 62.022C660.439 58.9464 663.749 56.4622 667.649 54.5695C671.55 52.6768 676.101 51.7304 681.302 51.7304V72.6685Z" fill="#0F0F0F"/>
<path d="M692.006 112.593H713.283C714.583 116.615 717.243 119.927 721.261 122.53C725.399 125.014 730.777 126.256 737.396 126.256C741.888 126.256 745.375 125.842 747.858 125.014C750.34 124.186 752.054 123.003 753 121.465C753.945 119.809 754.418 117.975 754.418 115.964C754.418 113.48 753.65 111.587 752.113 110.286C750.576 108.867 748.212 107.743 745.021 106.915C741.829 106.087 737.751 105.318 732.786 104.608C727.822 103.78 723.035 102.774 718.425 101.591C713.815 100.409 709.736 98.8707 706.19 96.978C702.644 94.967 699.807 92.4828 697.68 89.5254C695.67 86.4498 694.665 82.7235 694.665 78.3466C694.665 74.088 695.67 70.3026 697.68 66.9904C699.807 63.6781 702.703 60.8982 706.368 58.6506C710.15 56.403 714.524 54.6878 719.488 53.5048C724.571 52.3219 730.009 51.7304 735.801 51.7304C744.548 51.7304 751.818 53.0316 757.61 55.6341C763.402 58.1183 767.716 61.6671 770.553 66.2806C773.508 70.7758 774.986 75.9807 774.986 81.8955H754.595C753.65 77.5186 751.758 74.3838 748.921 72.4911C746.085 70.4801 741.711 69.4746 735.801 69.4746C730.009 69.4746 725.635 70.3618 722.68 72.1362C719.725 73.9106 718.247 76.3356 718.247 79.4113C718.247 81.8955 719.134 83.8473 720.907 85.2669C722.798 86.5681 725.517 87.6327 729.063 88.4608C732.727 89.2889 737.278 90.1761 742.716 91.1224C747.326 92.0688 751.699 93.1334 755.837 94.3164C760.092 95.4993 763.874 97.0371 767.184 98.9298C770.494 100.704 773.094 103.129 774.986 106.205C776.995 109.162 778 112.948 778 117.561C778 123.239 776.345 128.03 773.035 131.934C769.844 135.838 765.234 138.854 759.205 140.983C753.177 142.995 745.966 144 737.574 144C730.127 144 723.685 143.231 718.247 141.693C712.928 140.037 708.495 137.967 704.949 135.483C701.403 132.88 698.625 130.16 696.616 127.32C694.724 124.363 693.424 121.583 692.715 118.981C692.006 116.378 691.769 114.249 692.006 112.593Z" fill="#0F0F0F"/>
<path d="M178 53.6823H201.05V141.871H178V53.6823ZM234.916 72.6685C228.296 72.6685 222.563 73.9697 217.717 76.5722C212.871 79.0564 208.97 82.1321 206.015 85.7992C203.06 89.4663 200.991 93.0151 199.809 96.4457L199.632 86.6864C199.75 85.2668 200.223 83.1967 201.05 80.4759C201.877 77.6369 203.119 74.6204 204.773 71.4264C206.428 68.1142 208.615 64.9794 211.334 62.022C214.053 58.9464 217.362 56.4622 221.263 54.5695C225.164 52.6768 229.715 51.7304 234.916 51.7304V72.6685Z" stroke="#0F0F0F" stroke-width="4" mask="url(#path-3-outside-1_134_12)"/>
<path d="M317.074 143.823C309.273 143.823 302.594 142.462 297.039 139.741C291.483 136.902 286.991 133.235 283.563 128.74C280.135 124.127 277.594 119.158 275.939 113.835C274.284 108.393 273.457 103.07 273.457 97.8652C273.457 91.359 274.225 85.326 275.762 79.7662C277.417 74.2063 279.958 69.3563 283.386 65.216C286.814 60.9574 291.306 57.6451 296.861 55.2792C302.417 52.9133 309.155 51.7304 317.074 51.7304C326.176 51.7304 334.214 53.6823 341.188 57.586C348.281 61.3714 353.836 66.6946 357.855 73.5557C361.992 80.4168 364.061 88.5199 364.061 97.8652C364.061 106.974 361.992 115.018 357.855 121.997C353.718 128.858 348.103 134.241 341.011 138.144C333.919 141.93 325.94 143.823 317.074 143.823ZM309.628 126.078C315.892 126.078 321.33 124.895 325.94 122.53C330.55 120.164 334.096 116.911 336.578 112.77C339.179 108.512 340.479 103.543 340.479 97.8652C340.479 89.348 337.76 82.4869 332.323 77.282C327.004 72.077 319.439 69.4746 309.628 69.4746C302.772 69.4746 296.802 70.5984 291.719 72.8459C286.637 75.0935 282.677 78.3466 279.84 82.6052C277.121 86.7455 275.762 91.8322 275.762 97.8652C275.762 103.425 277.121 108.334 279.84 112.593C282.559 116.851 286.459 120.164 291.542 122.53C296.625 124.895 302.653 126.078 309.628 126.078ZM275.762 18.1939V119.158C275.762 122.944 275.584 127.025 275.23 131.402C274.875 135.66 274.521 139.15 274.166 141.871H252.712V18.1939H275.762Z" stroke="#0F0F0F" stroke-width="4" mask="url(#path-3-outside-1_134_12)"/>
<path d="M405.526 15C406.631 15 407.526 15.8954 407.526 17V33.2283C407.526 34.3329 406.631 35.2283 405.526 35.2283H382.753C381.648 35.2283 380.753 34.3329 380.753 33.2283V17C380.753 15.8954 381.648 15 382.753 15H405.526ZM382.526 53.6823H405.576V141.871H382.526V53.6823Z" stroke="#0F0F0F" stroke-width="4" mask="url(#path-3-outside-1_134_12)"/>
<path d="M422.345 53.6823H490.786V71.6039H422.345V53.6823ZM445.041 23.5763L468.091 46.4375V141.871H445.041V23.5763Z" stroke="#0F0F0F" stroke-width="4" mask="url(#path-3-outside-1_134_12)"/>
<path d="M584.539 112.593H606.88C605.934 118.626 603.393 124.008 599.256 128.74C595.237 133.472 589.74 137.198 582.766 139.919C575.792 142.64 567.281 144 557.234 144C546.004 144 536.075 142.226 527.446 138.677C518.817 135.01 512.079 129.746 507.233 122.884C502.386 116.023 499.963 107.743 499.963 98.0426C499.963 88.3425 502.327 80.0619 507.056 73.2008C511.784 66.2215 518.344 60.8982 526.737 57.2311C535.248 53.564 545.177 51.7304 556.525 51.7304C568.109 51.7304 577.742 53.564 585.426 57.2311C593.109 60.8982 598.783 66.458 602.447 73.9106C606.23 81.2448 607.826 90.6492 607.235 102.124H523.191C523.782 106.619 525.437 110.7 528.155 114.367C530.992 118.034 534.775 120.933 539.503 123.062C544.349 125.191 550.082 126.256 556.702 126.256C564.031 126.256 570.118 125.014 574.965 122.53C579.929 119.927 583.121 116.615 584.539 112.593ZM555.461 69.2971C546.95 69.2971 540.035 71.1898 534.716 74.9752C529.396 78.6424 525.968 83.1967 524.432 88.6382H584.362C583.771 82.7235 580.934 78.0509 575.851 74.6204C570.886 71.0715 564.09 69.2971 555.461 69.2971Z" stroke="#0F0F0F" stroke-width="4" mask="url(#path-3-outside-1_134_12)"/>
<path d="M624.386 53.6823H647.436V141.871H624.386V53.6823ZM681.302 72.6685C674.683 72.6685 668.95 73.9697 664.103 76.5722C659.257 79.0564 655.356 82.1321 652.401 85.7992C649.446 89.4663 647.377 93.0151 646.195 96.4457L646.018 86.6864C646.136 85.2668 646.609 83.1967 647.436 80.4759C648.264 77.6369 649.505 74.6204 651.16 71.4264C652.815 68.1142 655.001 64.9794 657.72 62.022C660.439 58.9464 663.749 56.4622 667.649 54.5695C671.55 52.6768 676.101 51.7304 681.302 51.7304V72.6685Z" stroke="#0F0F0F" stroke-width="4" mask="url(#path-3-outside-1_134_12)"/>
<path d="M692.006 112.593H713.283C714.583 116.615 717.243 119.927 721.261 122.53C725.399 125.014 730.777 126.256 737.396 126.256C741.888 126.256 745.375 125.842 747.858 125.014C750.34 124.186 752.054 123.003 753 121.465C753.945 119.809 754.418 117.975 754.418 115.964C754.418 113.48 753.65 111.587 752.113 110.286C750.576 108.867 748.212 107.743 745.021 106.915C741.829 106.087 737.751 105.318 732.786 104.608C727.822 103.78 723.035 102.774 718.425 101.591C713.815 100.409 709.736 98.8707 706.19 96.978C702.644 94.967 699.807 92.4828 697.68 89.5254C695.67 86.4498 694.665 82.7235 694.665 78.3466C694.665 74.088 695.67 70.3026 697.68 66.9904C699.807 63.6781 702.703 60.8982 706.368 58.6506C710.15 56.403 714.524 54.6878 719.488 53.5048C724.571 52.3219 730.009 51.7304 735.801 51.7304C744.548 51.7304 751.818 53.0316 757.61 55.6341C763.402 58.1183 767.716 61.6671 770.553 66.2806C773.508 70.7758 774.986 75.9807 774.986 81.8955H754.595C753.65 77.5186 751.758 74.3838 748.921 72.4911C746.085 70.4801 741.711 69.4746 735.801 69.4746C730.009 69.4746 725.635 70.3618 722.68 72.1362C719.725 73.9106 718.247 76.3356 718.247 79.4113C718.247 81.8955 719.134 83.8473 720.907 85.2669C722.798 86.5681 725.517 87.6327 729.063 88.4608C732.727 89.2889 737.278 90.1761 742.716 91.1224C747.326 92.0688 751.699 93.1334 755.837 94.3164C760.092 95.4993 763.874 97.0371 767.184 98.9298C770.494 100.704 773.094 103.129 774.986 106.205C776.995 109.162 778 112.948 778 117.561C778 123.239 776.345 128.03 773.035 131.934C769.844 135.838 765.234 138.854 759.205 140.983C753.177 142.995 745.966 144 737.574 144C730.127 144 723.685 143.231 718.247 141.693C712.928 140.037 708.495 137.967 704.949 135.483C701.403 132.88 698.625 130.16 696.616 127.32C694.724 124.363 693.424 121.583 692.715 118.981C692.006 116.378 691.769 114.249 692.006 112.593Z" stroke="#0F0F0F" stroke-width="4" mask="url(#path-3-outside-1_134_12)"/>
</svg>
